<svg width="394" height="688" viewBox="0 0 394 688" fill="none" xmlns="http://www.w3.org/2000/svg">
<g clip-path="url(#clip0_106_333)">
<path d="M22.3015 267.74C22.3015 265.13 27.8615 264 31.5715 264H363.822C367.532 264 368.292 265.14 368.292 267.74V622.04C368.292 624.65 366.732 627.76 363.442 628.96L204.462 687.11C201.162 688.31 196.052 688.32 192.742 687.14L29.4215 628.93C26.1115 627.74 22.2915 624.64 22.2915 622.04V267.74H22.3015Z" fill="#F8B92A"/>
<path d="M356.411 390.68V350.02H34.7615L356.411 390.68Z" fill="#BA8B20"/>
<path d="M377.591 332.51C377.591 332.51 217.821 385.33 16.2314 332.51V229.73C202.191 278.14 377.591 229.73 377.591 229.73V332.51Z" fill="white"/>
<path d="M377.591 229.73V332.51C377.591 332.51 306.571 355.98 199.511 355.98C145.971 355.98 83.4315 350.11 16.2315 332.51V229.73C78.2115 245.87 139.031 251.25 192.561 251.25C299.631 251.25 377.581 229.73 377.581 229.73M393.161 209.27L373.441 214.71C372.601 214.94 295.971 235.67 192.561 235.67C131.721 235.67 73.7115 228.6 20.1515 214.66L0.651489 209.57V344.53L12.2815 347.58C73.0215 363.49 136.011 371.56 199.511 371.56C307.831 371.56 379.481 348.29 382.481 347.3L393.171 343.77V209.26L393.161 209.27Z" fill="#F8B92A"/>
<path d="M75.9615 269.91C77.0415 270.11 78.0315 270.52 78.9215 271.12C79.8115 271.72 80.5515 272.43 81.1215 273.25C81.7015 274.07 82.1215 274.99 82.3815 276.03C82.6415 277.07 82.6815 278.12 82.4915 279.19C80.6515 289.59 78.8115 299.99 76.9715 310.39C76.7815 311.46 76.3715 312.44 75.7515 313.32C75.1215 314.2 74.3715 314.93 73.5015 315.51C72.6215 316.09 71.6315 316.49 70.5215 316.69C69.4115 316.9 68.2715 316.9 67.1115 316.68C58.5715 315.06 50.0515 313.29 41.5515 311.36C40.4015 311.1 39.3515 310.65 38.4115 310.01C37.4715 309.37 36.7015 308.61 36.1115 307.72C35.5115 306.83 35.1115 305.86 34.9115 304.81C34.7115 303.76 34.7415 302.71 34.9915 301.65C37.4615 291.38 39.9215 281.11 42.3915 270.84C42.6415 269.78 43.0915 268.83 43.7215 267.98C44.3515 267.13 45.1115 266.45 45.9915 265.93C46.8715 265.41 47.8415 265.06 48.9015 264.87C49.9615 264.67 51.0315 264.7 52.1015 264.94C60.0315 266.74 67.9815 268.4 75.9615 269.91ZM69.6915 280.47C64.3115 279.42 58.9415 278.3 53.5815 277.11C51.8215 285.08 50.0615 293.05 48.3015 301.01C53.8515 302.24 59.4215 303.4 64.9915 304.49C66.5615 296.48 68.1215 288.47 69.6915 280.47Z" fill="#F8B92A"/>
<path d="M130.492 278.29C130.712 278.56 130.812 278.88 130.772 279.24C130.462 282.22 130.152 285.19 129.842 288.17C129.802 288.53 129.642 288.82 129.362 289.04C129.082 289.26 128.752 289.35 128.382 289.31C120.632 288.49 112.902 287.53 105.182 286.44C104.952 286.41 104.822 286.48 104.802 286.66C104.452 289.11 104.112 291.55 103.762 294C103.732 294.23 103.832 294.35 104.062 294.39C109.982 295.23 115.922 295.98 121.852 296.67C122.222 296.71 122.512 296.87 122.722 297.15C122.932 297.43 123.012 297.74 122.972 298.1C122.652 300.92 122.332 303.73 122.022 306.55C121.982 306.91 121.832 307.2 121.562 307.42C121.292 307.64 120.972 307.73 120.592 307.69C114.562 307 108.532 306.23 102.512 305.38C102.272 305.35 102.142 305.44 102.112 305.67C101.392 310.72 100.682 315.77 99.9616 320.82C99.8416 321.67 99.3216 322.03 98.4016 321.9C95.0516 321.42 91.7116 320.91 88.3616 320.38C87.4416 320.23 87.0516 319.74 87.1816 318.88C89.5516 304.06 91.9316 289.25 94.3016 274.43C94.4416 273.58 94.9316 273.22 95.7916 273.36C107.032 275.14 118.302 276.63 129.602 277.83C129.962 277.87 130.262 278.03 130.482 278.3L130.492 278.29Z" fill="#F8B92A"/>
<path d="M173.902 281.42C174.142 281.68 174.252 281.99 174.242 282.35C174.122 285.34 174.012 288.33 173.892 291.32C173.882 291.68 173.742 291.98 173.472 292.22C173.202 292.46 172.892 292.57 172.522 292.56C164.752 292.24 156.982 291.79 149.212 291.21C148.982 291.19 148.862 291.27 148.842 291.45C148.652 293.91 148.472 296.38 148.282 298.84C148.262 299.07 148.372 299.19 148.612 299.21C154.562 299.66 160.522 300.03 166.492 300.32C166.872 300.34 167.162 300.48 167.392 300.74C167.612 301 167.722 301.31 167.702 301.67C167.572 304.5 167.432 307.33 167.302 310.16C167.282 310.52 167.152 310.82 166.902 311.06C166.652 311.3 166.332 311.41 165.952 311.39C159.892 311.09 153.842 310.72 147.792 310.26C147.552 310.24 147.422 310.35 147.412 310.57C147.022 315.66 146.642 320.74 146.252 325.83C146.182 326.69 145.692 327.08 144.762 327.01C141.392 326.75 138.032 326.46 134.662 326.15C133.732 326.07 133.312 325.59 133.392 324.73C134.792 309.79 136.202 294.85 137.602 279.91C137.682 279.05 138.152 278.66 139.022 278.74C150.332 279.78 161.662 280.53 172.992 280.99C173.352 281 173.662 281.14 173.902 281.4V281.42Z" fill="#F8B92A"/>
<path d="M192.702 327.83C192.702 328.69 192.222 329.12 191.292 329.11C187.922 329.07 184.542 329 181.172 328.91C180.242 328.88 179.792 328.44 179.812 327.58C180.242 312.58 180.672 297.58 181.092 282.58C181.112 281.72 181.562 281.3 182.432 281.32C185.582 281.4 188.732 281.46 191.882 281.5C192.752 281.51 193.182 281.95 193.172 282.81C193.012 297.81 192.862 312.82 192.702 327.82V327.83Z" fill="#F8B92A"/>
<path d="M216.441 293.27C216.191 293.5 216.071 293.8 216.081 294.16C216.251 301.5 216.422 308.84 216.592 316.19C216.592 316.55 216.742 316.84 217.012 317.06C217.282 317.28 217.612 317.39 217.992 317.38C225.712 317.18 233.431 316.86 241.141 316.41C241.521 316.39 241.861 316.49 242.141 316.73C242.421 316.96 242.572 317.26 242.592 317.62C242.772 320.61 242.952 323.59 243.132 326.58C243.152 326.94 243.031 327.26 242.781 327.52C242.531 327.79 242.201 327.93 241.811 327.95C236.711 328.25 231.602 328.49 226.492 328.68C222.292 328.84 218.082 328.95 213.882 329.03C213.442 329.03 213.001 329.05 212.561 329.05C211.391 329.07 210.271 328.88 209.221 328.49C208.161 328.09 207.242 327.54 206.462 326.82C205.672 326.1 205.062 325.26 204.622 324.28C204.182 323.31 203.951 322.28 203.951 321.19C203.951 320.78 203.951 320.37 203.951 319.97C203.951 318.32 203.931 316.66 203.921 315.01C203.891 309.73 203.862 304.45 203.842 299.17C203.842 297.7 203.822 296.22 203.822 294.75C203.822 293 203.802 291.26 203.792 289.51C203.792 288.42 203.991 287.39 204.391 286.41C204.801 285.43 205.362 284.59 206.092 283.88C206.822 283.17 207.672 282.6 208.652 282.15C209.632 281.71 210.662 281.47 211.762 281.46C212.172 281.46 212.582 281.45 212.992 281.44C221.692 281.27 230.381 280.94 239.061 280.43C239.431 280.41 239.742 280.52 240.012 280.75C240.282 280.98 240.421 281.28 240.441 281.64C240.621 284.63 240.802 287.61 240.982 290.6C241.002 290.96 240.892 291.28 240.652 291.54C240.412 291.81 240.102 291.95 239.732 291.97C232.292 292.4 224.842 292.72 217.382 292.9C217.012 292.9 216.701 293.03 216.451 293.26L216.441 293.27Z" fill="#F8B92A"/>
<path d="M267.612 324.68C267.692 325.54 267.272 326.01 266.342 326.1C262.982 326.41 259.612 326.7 256.252 326.97C255.322 327.04 254.832 326.65 254.762 325.79C253.612 310.83 252.472 295.87 251.322 280.91C251.252 280.05 251.652 279.59 252.522 279.52C255.662 279.27 258.802 279 261.942 278.71C262.802 278.63 263.282 279.02 263.362 279.87C264.782 294.81 266.192 309.75 267.612 324.68Z" fill="#F8B92A"/>
<path d="M305.902 273.14C306.982 272.97 308.052 273.01 309.092 273.28C310.132 273.55 311.061 273.96 311.881 274.54C312.701 275.11 313.411 275.84 314.011 276.73C314.611 277.62 315.002 278.59 315.192 279.67C317.372 292.27 319.542 304.87 321.722 317.46C321.782 317.82 321.701 318.14 321.481 318.43C321.261 318.72 320.952 318.9 320.562 318.97C317.202 319.54 313.832 320.09 310.472 320.62C310.082 320.68 309.732 320.61 309.432 320.4C309.132 320.2 308.941 319.91 308.891 319.55C308.271 315.54 307.651 311.53 307.041 307.52C306.991 307.16 306.821 306.88 306.541 306.67C306.271 306.46 305.942 306.38 305.562 306.44C300.862 307.16 296.152 307.82 291.442 308.44C291.062 308.49 290.752 308.66 290.522 308.94C290.292 309.22 290.202 309.54 290.242 309.9C290.762 313.92 291.282 317.95 291.802 321.97C291.912 322.82 291.502 323.31 290.582 323.43C287.232 323.86 283.871 324.26 280.511 324.64C279.581 324.74 279.071 324.37 278.981 323.51C277.571 310.8 276.162 298.1 274.752 285.39C274.632 284.31 274.722 283.26 275.032 282.25C275.332 281.24 275.812 280.34 276.462 279.56C277.112 278.78 277.901 278.12 278.821 277.57C279.751 277.03 280.752 276.69 281.842 276.55C289.872 275.56 297.892 274.42 305.902 273.14ZM305.282 296.16C304.672 292.22 304.072 288.27 303.462 284.33C298.062 285.16 292.651 285.93 287.231 286.63C287.741 290.59 288.252 294.54 288.772 298.5C294.282 297.79 299.792 297.01 305.282 296.16Z" fill="#F8B92A"/>
<path d="M363.242 298.45C363.622 298.36 363.952 298.41 364.252 298.59C364.542 298.78 364.732 299.05 364.822 299.4C365.522 302.31 366.222 305.22 366.922 308.13C367.002 308.48 366.962 308.81 366.782 309.11C366.602 309.41 366.322 309.61 365.932 309.7C355.582 312.16 345.202 314.39 334.782 316.39C333.862 316.56 333.322 316.23 333.162 315.38C330.372 300.64 327.572 285.89 324.782 271.15C324.622 270.3 324.972 269.8 325.822 269.64C328.932 269.04 332.032 268.43 335.132 267.79C335.982 267.61 336.502 267.95 336.672 268.79C338.952 279.73 341.232 290.67 343.512 301.61C343.582 301.97 343.772 302.23 344.082 302.39C344.392 302.56 344.732 302.6 345.112 302.52C351.172 301.25 357.212 299.89 363.252 298.45H363.242Z" fill="#F8B92A"/>
<path d="M393.421 209.24L373.511 199.37L373.291 0H18.3015L18.6815 200.96L0.411499 210.02L18.6815 222.71V222.99H19.0915L20.2115 223.77L20.2915 222.99H26.4515C26.4515 222.99 196.871 274.16 370.931 223.77H373.531V223.03C373.531 223.03 373.611 223.01 373.641 223L393.431 209.25L393.421 209.24Z" fill="#F8B92A"/>
<path d="M88.4615 561.43C89.4315 561.84 90.2615 562.4 90.9615 563.12C91.6615 563.84 92.2215 564.67 92.6515 565.62C93.0815 566.56 93.2915 567.58 93.2915 568.66V581.35C93.2915 582.43 93.0815 583.45 92.6515 584.42C92.2215 585.39 91.6615 586.23 90.9615 586.95C90.2615 587.67 89.4315 588.23 88.4615 588.64C87.4915 589.05 86.4715 589.25 85.3915 589.25H58.4615C57.6015 589.25 57.1815 588.82 57.1815 587.97V579.8C57.1815 579.44 57.3015 579.14 57.5515 578.89C57.8015 578.64 58.1015 578.52 58.4615 578.52H81.4115C81.7715 578.52 82.0715 578.41 82.3215 578.18C82.5715 577.96 82.6915 577.66 82.6915 577.3V571.7C82.6915 571.34 82.5715 571.04 82.3215 570.79C82.0715 570.54 81.7715 570.42 81.4115 570.42H65.0815C64.0015 570.42 62.9815 570.22 62.0115 569.81C61.0415 569.4 60.2015 568.84 59.4815 568.12C58.7615 567.4 58.2015 566.57 57.7915 565.62C57.3815 564.67 57.1815 563.66 57.1815 562.58V549.89C57.1815 548.81 57.3815 547.79 57.7915 546.82C58.1915 545.85 58.7615 545.02 59.4815 544.32C60.2015 543.62 61.0415 543.06 62.0115 542.63C62.9815 542.2 64.0015 541.99 65.0815 541.99H90.5215C91.3715 541.99 91.8015 542.42 91.8015 543.27V551.57C91.8015 551.93 91.6815 552.22 91.4315 552.45C91.1815 552.68 90.8815 552.79 90.5215 552.79H68.9915C68.6315 552.79 68.3415 552.91 68.1115 553.16C67.8815 553.41 67.7715 553.71 67.7715 554.07V559.54C67.7715 559.9 67.8815 560.2 68.1115 560.45C68.3315 560.7 68.6315 560.82 68.9915 560.82H85.3915C86.4715 560.82 87.4915 561.02 88.4615 561.43Z" fill="white"/>
<path d="M139.282 542.37C139.532 542.62 139.652 542.92 139.652 543.28V551.78C139.652 552.14 139.532 552.43 139.282 552.66C139.032 552.89 138.732 553 138.372 553H115.762C115.532 553 115.422 553.11 115.422 553.34V560.7C115.422 560.88 115.532 560.97 115.762 560.97H135.062C135.422 560.97 135.712 561.09 135.942 561.34C136.162 561.59 136.282 561.89 136.282 562.25V569C136.282 569.36 136.172 569.67 135.942 569.91C135.712 570.16 135.422 570.28 135.062 570.28H115.762C115.532 570.28 115.422 570.39 115.422 570.62V577.91C115.422 578.14 115.532 578.25 115.762 578.25H138.372C138.732 578.25 139.032 578.37 139.282 578.62C139.532 578.87 139.652 579.17 139.652 579.53V587.97C139.652 588.33 139.532 588.63 139.282 588.88C139.032 589.13 138.732 589.25 138.372 589.25H104.832C103.972 589.25 103.552 588.82 103.552 587.97V543.29C103.552 542.93 103.672 542.63 103.922 542.38C104.172 542.13 104.472 542.01 104.832 542.01H138.372C138.732 542.01 139.032 542.13 139.282 542.38V542.37Z" fill="white"/>
<path d="M182.102 542C183.182 542 184.202 542.21 185.172 542.64C186.142 543.07 186.972 543.63 187.672 544.33C188.372 545.03 188.932 545.86 189.362 546.83C189.792 547.8 190.002 548.82 190.002 549.9V587.96C190.002 588.32 189.882 588.62 189.632 588.87C189.382 589.12 189.082 589.24 188.722 589.24H179.342C178.982 589.24 178.682 589.12 178.432 588.87C178.182 588.62 178.062 588.32 178.062 587.96V575.88C178.062 575.52 177.952 575.22 177.722 574.97C177.492 574.72 177.202 574.6 176.842 574.6H163.482C163.122 574.6 162.822 574.72 162.572 574.97C162.322 575.22 162.202 575.52 162.202 575.88V587.96C162.202 588.82 161.772 589.24 160.922 589.24H151.612C150.762 589.24 150.332 588.81 150.332 587.96V549.9C150.332 548.82 150.532 547.8 150.942 546.83C151.352 545.86 151.912 545.03 152.632 544.33C153.352 543.63 154.192 543.07 155.162 542.64C156.132 542.21 157.152 542 158.232 542H182.122H182.102ZM178.052 564.47V552.59H162.192V564.47H178.052Z" fill="white"/>
<path d="M231.742 561.43C232.712 561.84 233.542 562.4 234.242 563.12C234.942 563.84 235.502 564.67 235.932 565.62C236.362 566.56 236.572 567.58 236.572 568.66V581.35C236.572 582.43 236.362 583.45 235.932 584.42C235.502 585.39 234.942 586.23 234.242 586.95C233.542 587.67 232.712 588.23 231.742 588.64C230.772 589.05 229.752 589.25 228.672 589.25H201.742C200.882 589.25 200.462 588.82 200.462 587.97V579.8C200.462 579.44 200.582 579.14 200.832 578.89C201.082 578.64 201.382 578.52 201.742 578.52H224.692C225.052 578.52 225.352 578.41 225.602 578.18C225.852 577.96 225.972 577.66 225.972 577.3V571.7C225.972 571.34 225.852 571.04 225.602 570.79C225.352 570.54 225.052 570.42 224.692 570.42H208.362C207.282 570.42 206.262 570.22 205.292 569.81C204.322 569.4 203.482 568.84 202.762 568.12C202.042 567.4 201.482 566.57 201.072 565.62C200.662 564.67 200.462 563.66 200.462 562.58V549.89C200.462 548.81 200.662 547.79 201.072 546.82C201.472 545.85 202.042 545.02 202.762 544.32C203.482 543.62 204.322 543.06 205.292 542.63C206.262 542.2 207.282 541.99 208.362 541.99H233.802C234.662 541.99 235.082 542.42 235.082 543.27V551.57C235.082 551.93 234.962 552.22 234.712 552.45C234.462 552.68 234.162 552.79 233.802 552.79H212.272C211.912 552.79 211.622 552.91 211.392 553.16C211.172 553.41 211.052 553.71 211.052 554.07V559.54C211.052 559.9 211.162 560.2 211.392 560.45C211.612 560.7 211.912 560.82 212.272 560.82H228.672C229.752 560.82 230.772 561.02 231.742 561.43Z" fill="white"/>
<path d="M278.472 542C279.552 542 280.572 542.21 281.542 542.64C282.512 543.07 283.342 543.63 284.042 544.33C284.742 545.03 285.302 545.86 285.732 546.83C286.162 547.8 286.372 548.82 286.372 549.9V581.35C286.372 582.43 286.162 583.45 285.732 584.42C285.302 585.39 284.742 586.23 284.042 586.95C283.342 587.67 282.512 588.23 281.542 588.64C280.572 589.05 279.552 589.25 278.472 589.25H254.582C253.502 589.25 252.482 589.05 251.512 588.64C250.542 588.23 249.702 587.67 248.982 586.95C248.262 586.23 247.702 585.39 247.292 584.42C246.892 583.45 246.682 582.43 246.682 581.35V549.9C246.682 548.82 246.882 547.8 247.292 546.83C247.702 545.86 248.262 545.03 248.982 544.33C249.702 543.63 250.542 543.07 251.512 542.64C252.482 542.21 253.502 542 254.582 542H278.472ZM274.422 553.47H258.562V577.77H274.422V553.47Z" fill="white"/>
<path d="M336.282 542.37C336.532 542.62 336.652 542.92 336.652 543.28V587.96C336.652 588.32 336.532 588.62 336.282 588.87C336.032 589.12 335.732 589.24 335.372 589.24H325.652C325.292 589.24 324.932 589.14 324.572 588.94C324.212 588.74 323.942 588.48 323.762 588.16L308.842 560.62V587.95C308.842 588.81 308.412 589.23 307.562 589.23H298.252C297.392 589.23 296.972 588.8 296.972 587.95V543.27C296.972 542.42 297.402 541.99 298.252 541.99H307.832C308.192 541.99 308.552 542.09 308.912 542.29C309.272 542.49 309.542 542.75 309.722 543.07L324.702 570.67V543.27C324.702 542.91 324.822 542.61 325.072 542.36C325.322 542.11 325.622 541.99 325.982 541.99H335.362C335.722 541.99 336.022 542.11 336.272 542.36L336.282 542.37Z" fill="white"/>
<path d="M81.1615 157.5C81.4415 157.62 81.6815 157.79 81.8815 157.99C82.0815 158.19 82.2415 158.43 82.3715 158.71C82.5015 158.99 82.5515 159.28 82.5515 159.59V170.54C82.5515 170.64 82.5115 170.73 82.4415 170.8C82.3715 170.87 82.2815 170.91 82.1815 170.91H79.4815C79.3815 170.91 79.2915 170.87 79.2315 170.8C79.1715 170.73 79.1315 170.64 79.1315 170.54V160.62H76.9615V170.54C76.9615 170.64 76.9315 170.73 76.8615 170.8C76.7915 170.87 76.7115 170.91 76.6115 170.91H74.1615C74.0615 170.91 73.9715 170.87 73.9015 170.8C73.8315 170.73 73.7915 170.64 73.7915 170.54V160.62H71.6215V170.54C71.6215 170.79 71.5015 170.91 71.2515 170.91H68.5715C68.3215 170.91 68.2015 170.79 68.2015 170.54V157.68C68.2015 157.43 68.3215 157.31 68.5715 157.31H80.2815C80.5915 157.31 80.8915 157.37 81.1615 157.49V157.5Z" fill="white"/>
<path d="M94.7516 157.32C95.0616 157.32 95.3616 157.38 95.6416 157.5C95.9216 157.62 96.1616 157.79 96.3616 157.99C96.5616 158.19 96.7216 158.43 96.8516 158.71C96.9816 158.99 97.0316 159.28 97.0316 159.59V170.54C97.0316 170.64 96.9916 170.73 96.9216 170.8C96.8516 170.87 96.7616 170.91 96.6616 170.91H93.9616C93.8616 170.91 93.7716 170.87 93.7016 170.8C93.6316 170.73 93.5916 170.64 93.5916 170.54V167.06C93.5916 166.96 93.5616 166.87 93.4916 166.8C93.4216 166.73 93.3416 166.69 93.2416 166.69H89.3916C89.2916 166.69 89.2016 166.73 89.1316 166.8C89.0616 166.87 89.0216 166.96 89.0216 167.06V170.54C89.0216 170.79 88.9016 170.91 88.6516 170.91H85.9716C85.7316 170.91 85.6016 170.79 85.6016 170.54V159.59C85.6016 159.28 85.6616 158.98 85.7716 158.71C85.8916 158.43 86.0516 158.19 86.2616 157.99C86.4716 157.79 86.7116 157.63 86.9916 157.5C87.2716 157.38 87.5616 157.32 87.8716 157.32H94.7516ZM93.5916 163.79V160.37H89.0316V163.79H93.5916Z" fill="white"/>
<path d="M109.252 157.43C109.322 157.5 109.362 157.59 109.362 157.69V168.64C109.362 168.95 109.302 169.25 109.182 169.52C109.062 169.8 108.892 170.04 108.692 170.25C108.492 170.46 108.252 170.62 107.972 170.74C107.692 170.86 107.402 170.91 107.092 170.91H101.242C100.932 170.91 100.632 170.85 100.362 170.74C100.082 170.62 99.8415 170.46 99.6315 170.25C99.4215 170.04 99.2615 169.8 99.1415 169.52C99.0215 169.24 98.9615 168.95 98.9615 168.64V164.48C98.9615 164.23 99.0815 164.11 99.3315 164.11H102.012C102.252 164.11 102.382 164.23 102.382 164.48V167.26C102.382 167.36 102.412 167.45 102.492 167.51C102.562 167.57 102.652 167.61 102.752 167.61H105.572C105.672 167.61 105.762 167.58 105.832 167.51C105.902 167.44 105.942 167.36 105.942 167.26V157.68C105.942 157.58 105.972 157.49 106.042 157.42C106.112 157.35 106.192 157.31 106.292 157.31H108.992C109.092 157.31 109.182 157.35 109.252 157.42V157.43Z" fill="white"/>
<path d="M121.532 157.32C121.842 157.32 122.142 157.38 122.412 157.5C122.692 157.62 122.932 157.79 123.132 157.99C123.332 158.19 123.492 158.43 123.622 158.71C123.752 158.99 123.802 159.28 123.802 159.59V168.64C123.802 168.95 123.742 169.25 123.622 169.52C123.502 169.79 123.342 170.04 123.132 170.25C122.932 170.46 122.692 170.62 122.412 170.74C122.132 170.86 121.842 170.91 121.532 170.91H114.652C114.342 170.91 114.042 170.85 113.772 170.74C113.492 170.62 113.252 170.46 113.042 170.25C112.832 170.04 112.672 169.8 112.552 169.52C112.432 169.24 112.372 168.95 112.372 168.64V159.59C112.372 159.28 112.432 158.98 112.552 158.71C112.672 158.44 112.832 158.19 113.042 157.99C113.252 157.79 113.492 157.63 113.772 157.5C114.052 157.38 114.342 157.32 114.652 157.32H121.532ZM120.372 160.62H115.812V167.61H120.372V160.62Z" fill="white"/>
<path d="M138.702 170.6C138.752 170.69 138.762 170.77 138.722 170.82C138.682 170.88 138.612 170.91 138.512 170.91H135.422C135.322 170.91 135.212 170.88 135.112 170.82C135.012 170.76 134.932 170.69 134.882 170.6L132.822 166.91C132.792 166.86 132.752 166.83 132.682 166.83H130.372C130.312 166.83 130.272 166.86 130.272 166.93V170.54C130.272 170.79 130.152 170.91 129.902 170.91H127.222C126.972 170.91 126.852 170.79 126.852 170.54V157.68C126.852 157.43 126.972 157.31 127.222 157.31H136.002C136.312 157.31 136.612 157.37 136.882 157.49C137.162 157.61 137.402 157.78 137.602 157.98C137.802 158.18 137.962 158.42 138.092 158.7C138.212 158.98 138.272 159.27 138.272 159.58V164.69C138.272 165.18 138.122 165.63 137.832 166.02C137.542 166.42 137.172 166.68 136.712 166.83L136.652 166.85C136.562 166.88 136.542 166.91 136.592 166.97L136.612 167.01L138.692 170.6H138.702ZM134.832 160.48H130.152V163.78H134.832V160.48Z" fill="white"/>
<path d="M157.022 167.61C157.122 167.61 157.212 167.65 157.272 167.72C157.332 167.79 157.372 167.88 157.372 167.98V170.54C157.372 170.64 157.342 170.73 157.272 170.8C157.202 170.87 157.122 170.91 157.022 170.91H148.632C148.382 170.91 148.262 170.79 148.262 170.54V157.68C148.262 157.43 148.382 157.31 148.632 157.31H151.312C151.562 157.31 151.682 157.43 151.682 157.68V167.26C151.682 167.36 151.712 167.45 151.792 167.51C151.872 167.57 151.952 167.61 152.052 167.61H157.022Z" fill="white"/>
<path d="M169.561 157.43C169.631 157.5 169.671 157.59 169.671 157.69V160.14C169.671 160.24 169.631 160.33 169.561 160.39C169.491 160.45 169.401 160.49 169.301 160.49H162.792C162.732 160.49 162.691 160.52 162.691 160.59V162.71C162.691 162.76 162.722 162.79 162.792 162.79H168.352C168.452 162.79 168.542 162.83 168.602 162.9C168.662 162.97 168.701 163.06 168.701 163.16V165.1C168.701 165.2 168.672 165.29 168.602 165.36C168.532 165.43 168.452 165.47 168.352 165.47H162.792C162.732 165.47 162.691 165.5 162.691 165.57V167.67C162.691 167.73 162.722 167.77 162.792 167.77H169.301C169.401 167.77 169.491 167.81 169.561 167.88C169.631 167.95 169.671 168.04 169.671 168.14V170.57C169.671 170.67 169.631 170.76 169.561 170.83C169.491 170.9 169.401 170.94 169.301 170.94H159.652C159.402 170.94 159.281 170.82 159.281 170.57V157.71C159.281 157.61 159.321 157.52 159.391 157.45C159.461 157.38 159.552 157.34 159.652 157.34H169.301C169.401 157.34 169.491 157.38 169.561 157.45V157.43Z" fill="white"/>
<path d="M181.882 157.32C182.192 157.32 182.492 157.38 182.772 157.5C183.052 157.62 183.292 157.79 183.492 157.99C183.692 158.19 183.852 158.43 183.982 158.71C184.112 158.99 184.162 159.28 184.162 159.59V170.54C184.162 170.64 184.122 170.73 184.052 170.8C183.982 170.87 183.892 170.91 183.792 170.91H181.092C180.992 170.91 180.902 170.87 180.832 170.8C180.762 170.73 180.722 170.64 180.722 170.54V167.06C180.722 166.96 180.692 166.87 180.622 166.8C180.552 166.73 180.472 166.69 180.372 166.69H176.522C176.422 166.69 176.332 166.73 176.262 166.8C176.192 166.87 176.152 166.96 176.152 167.06V170.54C176.152 170.79 176.032 170.91 175.782 170.91H173.102C172.862 170.91 172.732 170.79 172.732 170.54V159.59C172.732 159.28 172.792 158.98 172.902 158.71C173.022 158.43 173.182 158.19 173.392 157.99C173.602 157.79 173.842 157.63 174.122 157.5C174.402 157.38 174.692 157.32 175.002 157.32H181.882ZM180.722 163.79V160.37H176.162V163.79H180.722Z" fill="white"/>
<path d="M198.502 163.6C198.572 163.67 198.612 163.76 198.612 163.86V168.64C198.612 168.95 198.552 169.25 198.432 169.52C198.312 169.79 198.152 170.04 197.942 170.25C197.742 170.46 197.502 170.62 197.222 170.74C196.942 170.86 196.652 170.91 196.342 170.91H189.462C189.152 170.91 188.852 170.85 188.582 170.74C188.302 170.62 188.062 170.46 187.852 170.25C187.642 170.04 187.482 169.8 187.362 169.52C187.242 169.24 187.182 168.95 187.182 168.64V159.59C187.182 159.28 187.242 158.98 187.362 158.71C187.482 158.44 187.642 158.19 187.852 157.99C188.062 157.79 188.302 157.63 188.582 157.5C188.862 157.38 189.152 157.32 189.462 157.32H197.482C197.582 157.32 197.672 157.36 197.742 157.43C197.812 157.5 197.852 157.59 197.852 157.69V160.25C197.852 160.35 197.812 160.44 197.742 160.51C197.672 160.58 197.582 160.62 197.482 160.62H190.972C190.872 160.62 190.782 160.65 190.712 160.72C190.642 160.79 190.602 160.87 190.602 160.97V167.26C190.602 167.36 190.642 167.45 190.712 167.51C190.782 167.57 190.872 167.61 190.972 167.61H194.822C194.922 167.61 195.012 167.58 195.072 167.51C195.132 167.44 195.172 167.36 195.172 167.26V163.86C195.172 163.76 195.202 163.67 195.282 163.6C195.362 163.53 195.442 163.49 195.542 163.49H198.242C198.342 163.49 198.432 163.53 198.502 163.6Z" fill="white"/>
<path d="M212.831 157.43C212.901 157.5 212.941 157.59 212.941 157.69V168.64C212.941 168.95 212.881 169.25 212.761 169.52C212.641 169.79 212.481 170.04 212.271 170.25C212.071 170.46 211.831 170.62 211.551 170.74C211.271 170.86 210.981 170.91 210.661 170.91H203.781C203.471 170.91 203.171 170.85 202.901 170.74C202.621 170.62 202.381 170.46 202.171 170.25C201.961 170.04 201.801 169.8 201.681 169.52C201.561 169.24 201.511 168.95 201.511 168.64V157.69C201.511 157.44 201.631 157.32 201.881 157.32H204.561C204.801 157.32 204.931 157.44 204.931 157.69V167.27C204.931 167.37 204.971 167.46 205.041 167.52C205.111 167.58 205.201 167.62 205.301 167.62H209.151C209.251 167.62 209.341 167.59 209.401 167.52C209.461 167.45 209.501 167.37 209.501 167.27V157.69C209.501 157.59 209.541 157.5 209.611 157.43C209.681 157.36 209.771 157.32 209.871 157.32H212.571C212.671 157.32 212.761 157.36 212.831 157.43Z" fill="white"/>
<path d="M226.291 157.43C226.361 157.5 226.401 157.59 226.401 157.69V160.14C226.401 160.24 226.361 160.33 226.291 160.39C226.221 160.45 226.131 160.49 226.031 160.49H219.521C219.461 160.49 219.421 160.52 219.421 160.59V162.71C219.421 162.76 219.451 162.79 219.521 162.79H225.081C225.181 162.79 225.271 162.83 225.331 162.9C225.391 162.97 225.431 163.06 225.431 163.16V165.1C225.431 165.2 225.401 165.29 225.331 165.36C225.261 165.43 225.181 165.47 225.081 165.47H219.521C219.461 165.47 219.421 165.5 219.421 165.57V167.67C219.421 167.73 219.451 167.77 219.521 167.77H226.031C226.131 167.77 226.221 167.81 226.291 167.88C226.361 167.95 226.401 168.04 226.401 168.14V170.57C226.401 170.67 226.361 170.76 226.291 170.83C226.221 170.9 226.131 170.94 226.031 170.94H216.381C216.131 170.94 216.011 170.82 216.011 170.57V157.71C216.011 157.61 216.051 157.52 216.121 157.45C216.191 157.38 216.281 157.34 216.381 157.34H226.031C226.131 157.34 226.221 157.38 226.291 157.45V157.43Z" fill="white"/>
<path d="M247.142 157.32C247.242 157.32 247.332 157.36 247.402 157.43C247.472 157.5 247.512 157.59 247.512 157.69V170.55C247.512 170.65 247.482 170.74 247.402 170.81C247.322 170.88 247.242 170.92 247.142 170.92H244.442C244.342 170.92 244.252 170.88 244.182 170.81C244.112 170.74 244.072 170.65 244.072 170.55V166.06C244.072 165.96 244.042 165.87 243.972 165.81C243.902 165.75 243.822 165.71 243.722 165.71H239.872C239.772 165.71 239.682 165.74 239.612 165.81C239.542 165.88 239.502 165.96 239.502 166.06V170.55C239.502 170.8 239.382 170.92 239.132 170.92H236.452C236.202 170.92 236.082 170.8 236.082 170.55V157.69C236.082 157.44 236.202 157.32 236.452 157.32H239.132C239.382 157.32 239.502 157.44 239.502 157.69V162.04C239.502 162.29 239.622 162.41 239.872 162.41H243.722C243.822 162.41 243.912 162.37 243.972 162.3C244.032 162.23 244.072 162.14 244.072 162.04V157.69C244.072 157.59 244.112 157.5 244.182 157.43C244.252 157.36 244.342 157.32 244.442 157.32H247.142Z" fill="white"/>
<path d="M259.722 157.32C260.032 157.32 260.332 157.38 260.612 157.5C260.892 157.62 261.132 157.79 261.332 157.99C261.532 158.19 261.692 158.43 261.822 158.71C261.952 158.99 262.002 159.28 262.002 159.59V170.54C262.002 170.64 261.962 170.73 261.892 170.8C261.822 170.87 261.732 170.91 261.632 170.91H258.932C258.832 170.91 258.742 170.87 258.672 170.8C258.602 170.73 258.562 170.64 258.562 170.54V167.06C258.562 166.96 258.532 166.87 258.462 166.8C258.392 166.73 258.312 166.69 258.212 166.69H254.362C254.262 166.69 254.172 166.73 254.102 166.8C254.032 166.87 253.992 166.96 253.992 167.06V170.54C253.992 170.79 253.872 170.91 253.622 170.91H250.942C250.702 170.91 250.572 170.79 250.572 170.54V159.59C250.572 159.28 250.632 158.98 250.742 158.71C250.862 158.43 251.022 158.19 251.232 157.99C251.442 157.79 251.682 157.63 251.962 157.5C252.242 157.38 252.532 157.32 252.842 157.32H259.722ZM258.562 163.79V160.37H254.002V163.79H258.562Z" fill="white"/>
<path d="M268.532 160.72C268.462 160.78 268.422 160.87 268.422 160.97V167.26C268.422 167.36 268.452 167.45 268.532 167.51C268.612 167.57 268.692 167.61 268.792 167.61H275.032C275.132 167.61 275.222 167.65 275.292 167.72C275.362 167.79 275.402 167.88 275.402 167.98V170.54C275.402 170.64 275.372 170.73 275.292 170.8C275.212 170.87 275.132 170.91 275.032 170.91H267.282C266.972 170.91 266.672 170.85 266.402 170.74C266.122 170.62 265.882 170.46 265.672 170.25C265.462 170.04 265.302 169.8 265.182 169.52C265.062 169.24 265.002 168.95 265.002 168.64V159.59C265.002 159.28 265.062 158.98 265.182 158.71C265.302 158.43 265.462 158.19 265.672 157.99C265.882 157.79 266.122 157.63 266.402 157.5C266.682 157.38 266.972 157.32 267.282 157.32H275.032C275.132 157.32 275.222 157.36 275.292 157.43C275.362 157.5 275.402 157.59 275.402 157.69V160.25C275.402 160.35 275.372 160.44 275.292 160.51C275.212 160.58 275.132 160.62 275.032 160.62H268.792C268.692 160.62 268.602 160.65 268.532 160.72Z" fill="white"/>
<path d="M286.221 163.05C286.221 163.05 286.171 163.13 286.201 163.19L290.751 170.61C290.801 170.7 290.811 170.78 290.771 170.83C290.731 170.89 290.661 170.92 290.561 170.92H287.341C287.241 170.92 287.131 170.89 287.031 170.83C286.931 170.77 286.851 170.7 286.801 170.61L283.871 165.31C283.831 165.25 283.801 165.24 283.771 165.29L282.161 167.06C282.101 167.13 282.041 167.22 282.001 167.34C281.951 167.46 281.931 167.58 281.931 167.68V170.55C281.931 170.8 281.811 170.92 281.561 170.92H278.881C278.631 170.92 278.511 170.8 278.511 170.55V157.69C278.511 157.44 278.631 157.32 278.881 157.32H281.561C281.811 157.32 281.931 157.44 281.931 157.69V163.46L286.941 157.59C287.001 157.51 287.091 157.45 287.211 157.4C287.331 157.35 287.441 157.32 287.541 157.32H290.761C290.861 157.32 290.921 157.35 290.941 157.4C290.961 157.45 290.941 157.52 290.871 157.59L286.231 163.05H286.221Z" fill="white"/>
<path d="M296.691 170.55C296.691 170.8 296.571 170.92 296.321 170.92H293.641C293.391 170.92 293.271 170.8 293.271 170.55V157.69C293.271 157.44 293.391 157.32 293.641 157.32H296.321C296.571 157.32 296.691 157.44 296.691 157.69V170.55Z" fill="white"/>
<path d="M309.772 157.5C310.052 157.62 310.292 157.79 310.492 157.99C310.692 158.19 310.852 158.43 310.982 158.71C311.102 158.99 311.162 159.28 311.162 159.59V170.54C311.162 170.64 311.132 170.73 311.052 170.8C310.972 170.87 310.892 170.91 310.792 170.91H308.092C307.992 170.91 307.902 170.87 307.842 170.8C307.782 170.73 307.742 170.64 307.742 170.54V160.96C307.742 160.86 307.702 160.77 307.632 160.71C307.562 160.65 307.472 160.61 307.372 160.61H303.522C303.422 160.61 303.332 160.64 303.262 160.71C303.192 160.78 303.152 160.86 303.152 160.96V170.54C303.152 170.79 303.032 170.91 302.782 170.91H300.102C299.852 170.91 299.732 170.79 299.732 170.54V157.68C299.732 157.43 299.852 157.31 300.102 157.31H308.882C309.192 157.31 309.492 157.37 309.762 157.49L309.772 157.5Z" fill="white"/>
<path d="M325.502 163.6C325.572 163.67 325.612 163.76 325.612 163.86V168.64C325.612 168.95 325.552 169.25 325.432 169.52C325.312 169.79 325.152 170.04 324.942 170.25C324.742 170.46 324.502 170.62 324.222 170.74C323.942 170.86 323.652 170.91 323.342 170.91H316.462C316.152 170.91 315.852 170.85 315.582 170.74C315.302 170.62 315.062 170.46 314.852 170.25C314.642 170.04 314.482 169.8 314.362 169.52C314.242 169.24 314.182 168.95 314.182 168.64V159.59C314.182 159.28 314.242 158.98 314.362 158.71C314.482 158.44 314.642 158.19 314.852 157.99C315.062 157.79 315.302 157.63 315.582 157.5C315.862 157.38 316.152 157.32 316.462 157.32H324.482C324.582 157.32 324.672 157.36 324.742 157.43C324.812 157.5 324.852 157.59 324.852 157.69V160.25C324.852 160.35 324.812 160.44 324.742 160.51C324.672 160.58 324.582 160.62 324.482 160.62H317.972C317.872 160.62 317.782 160.65 317.712 160.72C317.642 160.79 317.602 160.87 317.602 160.97V167.26C317.602 167.36 317.642 167.45 317.712 167.51C317.782 167.57 317.872 167.61 317.972 167.61H321.822C321.922 167.61 322.012 167.58 322.072 167.51C322.132 167.44 322.172 167.36 322.172 167.26V163.86C322.172 163.76 322.202 163.67 322.282 163.6C322.362 163.53 322.442 163.49 322.542 163.49H325.242C325.342 163.49 325.432 163.53 325.502 163.6Z" fill="white"/>
<path d="M150.132 63.72C151.892 64.5 153.402 65.52 154.672 66.78C155.942 68.05 156.962 69.56 157.742 71.31C158.522 73.07 158.912 74.92 158.912 76.88V148.21C158.912 148.86 158.682 149.42 158.232 149.86C157.782 150.3 157.232 150.53 156.572 150.53H139.512C138.852 150.53 138.322 150.31 137.912 149.86C137.502 149.41 137.302 148.86 137.302 148.21V83.38H123.552V148.22C123.552 148.87 123.342 149.43 122.942 149.87C122.532 150.32 122.002 150.54 121.342 150.54H105.872C105.212 150.54 104.662 150.32 104.212 149.87C103.762 149.42 103.532 148.87 103.532 148.22V83.38H89.7815V148.22C89.7815 149.77 89.0015 150.55 87.4515 150.55H70.5115C68.9515 150.55 68.1815 149.77 68.1815 148.22V64.89C68.1815 63.34 68.9615 62.56 70.5115 62.56H144.532C146.492 62.56 148.352 62.95 150.112 63.72H150.132Z" fill="white"/>
<path d="M150.132 63.72C151.892 64.5 153.402 65.52 154.672 66.78C155.942 68.05 156.962 69.56 157.742 71.31C158.522 73.07 158.912 74.92 158.912 76.88V83.24L137.312 83.37H89.8115L68.2115 83.24V64.88C68.2115 63.33 68.9915 62.55 70.5415 62.55H144.562C146.522 62.55 148.382 62.94 150.142 63.71L150.132 63.72Z" fill="white"/>
<path d="M233.301 129.19C233.991 129.19 234.561 129.42 234.991 129.88C235.421 130.34 235.641 130.91 235.641 131.58V148.17C235.641 148.84 235.421 149.41 234.991 149.87C234.561 150.33 233.991 150.56 233.301 150.56H174.861C173.211 150.56 172.391 149.76 172.391 148.17V64.95C172.391 63.36 173.211 62.56 174.861 62.56H192.801C194.451 62.56 195.271 63.36 195.271 64.95V126.93C195.271 127.6 195.511 128.15 195.991 128.56C196.471 128.98 197.051 129.19 197.751 129.19H233.301Z" fill="white"/>
<path d="M195.091 150.56H174.861C173.221 150.56 172.401 149.76 172.401 148.17V64.95C172.401 63.36 173.221 62.56 174.861 62.56H192.761C194.401 62.56 195.221 63.36 195.221 64.95V126.93C195.221 127.6 195.091 150.56 195.091 150.56Z" fill="white"/>
<path d="M323.122 62.56C323.822 62.56 324.412 62.79 324.892 63.25C325.372 63.71 325.612 64.28 325.612 64.95V148.41C325.612 149.08 325.372 149.65 324.892 150.11C324.412 150.57 323.822 150.8 323.122 150.8H304.942C304.242 150.8 303.652 150.57 303.172 150.11C302.692 149.65 302.452 149.08 302.452 148.41V119.29C302.452 118.62 302.232 118.07 301.802 117.65C301.362 117.23 300.802 117.02 300.102 117.02H274.602C273.902 117.02 273.312 117.23 272.832 117.65C272.352 118.07 272.112 118.62 272.112 119.29V148.41C272.112 150.01 271.282 150.81 269.632 150.81H251.582C249.922 150.81 249.102 150.01 249.102 148.41V64.96C249.102 63.36 249.932 62.56 251.582 62.56H269.632C271.282 62.56 272.112 63.36 272.112 64.96V93.2C272.112 94.8 272.942 95.6 274.592 95.6H300.092C300.792 95.6 301.352 95.37 301.792 94.91C302.232 94.45 302.442 93.88 302.442 93.21V64.97C302.442 64.3 302.682 63.73 303.162 63.27C303.642 62.81 304.232 62.58 304.932 62.58H323.112L323.122 62.56Z" fill="white"/>
<path d="M272.132 119.29V148.41C272.132 150.01 271.302 150.81 269.652 150.81H251.602C249.942 150.81 249.122 150.01 249.122 148.41V64.96C249.122 63.36 249.952 62.56 251.602 62.56H269.652C271.302 62.56 272.132 63.36 272.132 64.96V119.3V119.29Z" fill="white"/>
<path d="M323.122 62.56C323.822 62.56 324.412 62.79 324.892 63.25C325.372 63.71 325.612 64.28 325.612 64.95V148.41C325.612 149.08 325.372 149.65 324.892 150.11C324.412 150.57 323.822 150.8 323.122 150.8H304.942C304.242 150.8 303.652 150.57 303.172 150.11C302.692 149.65 302.452 149.08 302.452 148.41V64.96C302.452 64.29 302.692 63.72 303.172 63.26C303.652 62.8 304.242 62.57 304.942 62.57H323.122V62.56Z" fill="white"/>
<path d="M79.346 488.317C78.2609 488.317 77.5633 488.942 77.2533 490.191V500.617C77.4858 501.789 78.1834 502.374 79.346 502.374H81.6713H118.41C119.03 502.374 119.534 502.609 119.922 503.077C120.309 503.468 120.503 503.975 120.503 504.6V518.774C120.503 519.399 120.309 519.946 119.922 520.414C119.534 520.805 119.03 521 118.41 521H81.9038H76.9045H72.6028H72.4865H61.209C59.7363 521 59 520.258 59 518.774V507.411V507.294V506.006V486.091V485.271C59 483.397 59.3488 481.64 60.0464 480C60.7439 478.36 61.7128 476.915 62.9529 475.666C64.1931 474.416 65.627 473.44 67.2547 472.737C68.9599 472.034 70.7426 471.683 72.6028 471.683H77.2533H81.9038H94.4602H100.157C100.777 471.683 101.281 471.488 101.668 471.097C102.134 470.629 102.366 470.082 102.366 469.457V459.969C102.366 459.344 102.134 458.836 101.668 458.446C101.281 457.977 100.777 457.743 100.157 457.743H93.9951H63.6505C63.0304 457.743 62.5266 457.548 62.1391 457.157C61.7516 456.767 61.5578 456.259 61.5578 455.634V441.226C61.5578 440.601 61.7516 440.093 62.1391 439.703C62.5266 439.234 63.0304 439 63.6505 439H97.7155H102.134H107.017C108.877 439 110.621 439.39 112.248 440.171C113.876 440.874 115.31 441.85 116.55 443.1C117.79 444.271 118.759 445.716 119.457 447.434C120.154 449.074 120.503 450.831 120.503 452.706V453.291V455.986C120.581 456.064 120.619 456.181 120.619 456.337V486.209C120.619 486.833 120.387 487.341 119.922 487.731C119.534 488.122 119.03 488.317 118.41 488.317H107.017H104.575H102.366H97.7155H80.7412H79.346Z" fill="white"/>
<path d="M181.267 439C183.127 439 184.871 439.39 186.499 440.171C188.204 440.874 189.638 441.85 190.8 443.1C192.04 444.271 193.009 445.716 193.707 447.434C194.482 449.074 194.87 450.831 194.87 452.706V507.294C194.87 509.169 194.482 510.965 193.707 512.683C193.009 514.323 192.04 515.768 190.8 517.017C189.638 518.267 188.204 519.243 186.499 519.946C184.871 520.649 183.127 521 181.267 521H169.64H166.036H162.2H156.735H146.272C144.411 521 142.629 520.649 140.924 519.946C139.296 519.243 137.862 518.267 136.622 517.017C135.382 515.768 134.413 514.323 133.715 512.683C133.018 510.965 132.669 509.169 132.669 507.294V452.706C132.669 450.831 133.018 449.074 133.715 447.434C134.413 445.716 135.382 444.271 136.622 443.1C137.862 441.85 139.296 440.874 140.924 440.171C142.629 439.39 144.411 439 146.272 439H156.735H162.2H166.036H169.64H181.267ZM175.105 458.914H152.434V501.086H175.105V458.914Z" fill="white"/>
<path d="M227.127 488.317C226.042 488.317 225.344 488.942 225.034 490.191V500.617C225.267 501.789 225.964 502.374 227.127 502.374H229.452H266.191C266.811 502.374 267.315 502.609 267.703 503.077C268.09 503.468 268.284 503.975 268.284 504.6V518.774C268.284 519.399 268.09 519.946 267.703 520.414C267.315 520.805 266.811 521 266.191 521H229.685H224.685H220.384H220.267H208.99C207.517 521 206.781 520.258 206.781 518.774V507.411V507.294V506.006V486.091V485.271C206.781 483.397 207.13 481.64 207.827 480C208.525 478.36 209.494 476.915 210.734 475.666C211.974 474.416 213.408 473.44 215.036 472.737C216.741 472.034 218.524 471.683 220.384 471.683H225.034H229.685H242.241H247.938C248.558 471.683 249.062 471.488 249.449 471.097C249.915 470.629 250.147 470.082 250.147 469.457V459.969C250.147 459.344 249.915 458.836 249.449 458.446C249.062 457.977 248.558 457.743 247.938 457.743H241.776H211.432C210.811 457.743 210.308 457.548 209.92 457.157C209.533 456.767 209.339 456.259 209.339 455.634V441.226C209.339 440.601 209.533 440.093 209.92 439.703C210.308 439.234 210.811 439 211.432 439H245.497H249.915H254.798C256.658 439 258.402 439.39 260.029 440.171C261.657 440.874 263.091 441.85 264.331 443.1C265.571 444.271 266.54 445.716 267.238 447.434C267.935 449.074 268.284 450.831 268.284 452.706V453.291V455.986C268.362 456.064 268.4 456.181 268.4 456.337V486.209C268.4 486.833 268.168 487.341 267.703 487.731C267.315 488.122 266.811 488.317 266.191 488.317H254.798H252.356H250.147H245.497H228.522H227.127Z" fill="white"/>
<path d="M335.791 439C336.411 439 336.915 439.234 337.302 439.703C337.767 440.093 338 440.601 338 441.226V462.077V468.989V518.774C338 519.399 337.767 519.946 337.302 520.414C336.915 520.805 336.411 521 335.791 521H319.63C319.01 521 318.507 520.805 318.119 520.414C317.731 519.946 317.538 519.399 317.538 518.774V499.563C317.538 498.938 317.305 498.43 316.84 498.04C316.453 497.65 315.949 497.454 315.329 497.454H289.402C287.542 497.454 285.759 497.103 284.054 496.4C282.426 495.619 280.992 494.643 279.752 493.471C278.512 492.222 277.543 490.777 276.846 489.137C276.148 487.419 275.799 485.623 275.799 483.749V470.746V468.989V455.869V452.706V441.226C275.799 439.742 276.536 439 278.008 439H294.053C295.525 439 296.262 439.742 296.262 441.226V453.994V458.094V468.989V474.611C296.262 475.236 296.455 475.783 296.843 476.251C297.308 476.642 297.851 476.837 298.471 476.837H315.329C315.949 476.837 316.453 476.642 316.84 476.251C317.305 475.783 317.538 475.236 317.538 474.611V468.989V466.411V454.931V441.226C317.538 440.601 317.731 440.093 318.119 439.703C318.507 439.234 319.01 439 319.63 439H335.791Z" fill="white"/>
</g>
<defs>
<clipPath id="clip0_106_333">
<rect width="392.79" height="688" fill="white" transform="translate(0.521484)"/>
</clipPath>
</defs>
</svg>
